<?xml version="1.0" encoding="UTF-8"?><svg xmlns="http://www.w3.org/2000/svg" xmlns:xlink="http://www.w3.org/1999/xlink" fill-opacity="1" color-rendering="auto" color-interpolation="auto" text-rendering="auto" stroke="black" stroke-linecap="square" width="707" stroke-miterlimit="10" shape-rendering="auto" stroke-opacity="1" fill="black" stroke-dasharray="none" font-weight="normal" stroke-width="1" height="295" font-family="'Dialog'" font-style="normal" stroke-linejoin="miter" font-size="12px" stroke-dashoffset="0" image-rendering="auto">
  <!--Generated by ySVG 2.6-->
  <defs id="genericDefs"/>
  <g>
    <defs id="defs1">
      <clipPath clipPathUnits="userSpaceOnUse" id="clipPath1">
        <path d="M0 0 L707 0 L707 295 L0 295 L0 0 Z"/>
      </clipPath>
      <clipPath clipPathUnits="userSpaceOnUse" id="clipPath2">
        <path d="M120 223 L827 223 L827 518 L120 518 L120 223 Z"/>
      </clipPath>
    </defs>
    <g fill="white" text-rendering="geometricPrecision" shape-rendering="geometricPrecision" transform="translate(-120,-223)" stroke="white">
      <rect x="120" width="707" height="295" y="223" clip-path="url(#clipPath2)" stroke="none"/>
    </g>
    <g fill="rgb(229,242,248)" text-rendering="geometricPrecision" shape-rendering="geometricPrecision" transform="matrix(1,0,0,1,-120,-223)" stroke="rgb(229,242,248)">
      <rect x="623.2904" width="101.6191" height="37.4375" y="403.875" clip-path="url(#clipPath2)" stroke="none"/>
    </g>
    <g text-rendering="geometricPrecision" stroke-miterlimit="1.45" shape-rendering="geometricPrecision" transform="matrix(1,0,0,1,-120,-223)" stroke-linecap="butt">
      <rect fill="none" x="623.2904" width="101.6191" height="37.4375" y="403.875" clip-path="url(#clipPath2)"/>
      <text x="657.2201" font-size="20px" y="429.4297" clip-path="url(#clipPath2)" font-family="'Roboto Condensed'" font-style="italic" stroke="none" xml:space="preserve">date</text>
    </g>
    <g fill="rgb(229,242,248)" text-rendering="geometricPrecision" shape-rendering="geometricPrecision" transform="matrix(1,0,0,1,-120,-223)" stroke="rgb(229,242,248)">
      <rect x="282.6799" width="101.6191" height="37.4375" y="403.875" clip-path="url(#clipPath2)" stroke="none"/>
    </g>
    <g text-rendering="geometricPrecision" stroke-miterlimit="1.45" shape-rendering="geometricPrecision" transform="matrix(1,0,0,1,-120,-223)" stroke-linecap="butt">
      <rect fill="none" x="282.6799" width="101.6191" height="37.4375" y="403.875" clip-path="url(#clipPath2)"/>
      <text x="315.0568" font-size="20px" y="429.4297" clip-path="url(#clipPath2)" font-family="'Roboto Condensed'" font-style="italic" stroke="none" xml:space="preserve">label</text>
    </g>
    <g fill="rgb(229,242,248)" text-rendering="geometricPrecision" shape-rendering="geometricPrecision" transform="matrix(1,0,0,1,-120,-223)" stroke="rgb(229,242,248)">
      <rect x="282.6799" width="117.8412" height="37.4375" y="478.75" clip-path="url(#clipPath2)" stroke="none"/>
    </g>
    <g text-rendering="geometricPrecision" stroke-miterlimit="1.45" shape-rendering="geometricPrecision" transform="matrix(1,0,0,1,-120,-223)" stroke-linecap="butt">
      <rect fill="none" x="282.6799" width="117.8412" height="37.4375" y="478.75" clip-path="url(#clipPath2)"/>
      <text x="299.0761" font-size="20px" y="504.3047" clip-path="url(#clipPath2)" font-family="'Roboto Condensed'" font-style="italic" stroke="none" xml:space="preserve">NUTS code</text>
    </g>
    <g fill="rgb(229,242,248)" text-rendering="geometricPrecision" shape-rendering="geometricPrecision" transform="matrix(1,0,0,1,-120,-223)" stroke="rgb(229,242,248)">
      <rect x="524.051" width="33.873" height="37.4375" y="368.875" clip-path="url(#clipPath2)" stroke="none"/>
    </g>
    <g text-rendering="geometricPrecision" stroke-miterlimit="1.45" shape-rendering="geometricPrecision" transform="matrix(1,0,0,1,-120,-223)" stroke-linecap="butt">
      <rect fill="none" x="524.051" width="33.873" height="37.4375" y="368.875" clip-path="url(#clipPath2)"/>
      <text x="536.051" font-size="20px" y="394.4297" clip-path="url(#clipPath2)" font-family="'Roboto Condensed'" stroke="none" xml:space="preserve">2</text>
    </g>
    <g fill="rgb(229,242,248)" text-rendering="geometricPrecision" shape-rendering="geometricPrecision" transform="matrix(1,0,0,1,-120,-223)" stroke="rgb(229,242,248)">
      <rect x="490.1779" width="33.873" height="37.4375" y="368.875" clip-path="url(#clipPath2)" stroke="none"/>
    </g>
    <g text-rendering="geometricPrecision" stroke-miterlimit="1.45" shape-rendering="geometricPrecision" transform="matrix(1,0,0,1,-120,-223)" stroke-linecap="butt">
      <rect fill="none" x="490.1779" width="33.873" height="37.4375" y="368.875" clip-path="url(#clipPath2)"/>
      <text x="502.1779" font-size="20px" y="394.4297" clip-path="url(#clipPath2)" font-family="'Roboto Condensed'" stroke="none" xml:space="preserve">1</text>
    </g>
    <g fill="rgb(169,212,232)" text-rendering="geometricPrecision" shape-rendering="geometricPrecision" transform="matrix(1,0,0,1,-120,-223)" stroke="rgb(169,212,232)">
      <rect x="414.299" y="478.75" clip-path="url(#clipPath2)" width="185.6309" rx="4" ry="4" height="37.4375" stroke="none"/>
    </g>
    <g text-rendering="geometricPrecision" stroke-miterlimit="1.45" shape-rendering="geometricPrecision" transform="matrix(1,0,0,1,-120,-223)" stroke-linecap="butt">
      <rect x="414.299" y="478.75" clip-path="url(#clipPath2)" fill="none" width="185.6309" rx="4" ry="4" height="37.4375"/>
      <text x="426.299" font-size="20px" y="504.3047" clip-path="url(#clipPath2)" font-family="'Roboto Condensed'" stroke="none" xml:space="preserve">status:DEPRECATED</text>
    </g>
    <g fill="rgb(169,212,232)" text-rendering="geometricPrecision" shape-rendering="geometricPrecision" transform="matrix(1,0,0,1,-120,-223)" stroke="rgb(169,212,232)">
      <rect x="544.5951" y="224.5625" clip-path="url(#clipPath2)" width="194.498" rx="4" ry="4" height="37.4375" stroke="none"/>
    </g>
    <g text-rendering="geometricPrecision" stroke-miterlimit="1.45" shape-rendering="geometricPrecision" transform="matrix(1,0,0,1,-120,-223)" stroke-linecap="butt">
      <rect x="544.5951" y="224.5625" clip-path="url(#clipPath2)" fill="none" width="194.498" rx="4" ry="4" height="37.4375"/>
      <text x="556.5951" font-size="20px" y="250.1172" clip-path="url(#clipPath2)" font-family="'Roboto Condensed'" stroke="none" xml:space="preserve">skos:ConceptScheme</text>
    </g>
    <g fill="rgb(229,242,248)" text-rendering="geometricPrecision" shape-rendering="geometricPrecision" transform="matrix(1,0,0,1,-120,-223)" stroke="rgb(229,242,248)">
      <rect x="456.3049" width="33.873" height="37.4375" y="368.875" clip-path="url(#clipPath2)" stroke="none"/>
    </g>
    <g text-rendering="geometricPrecision" stroke-miterlimit="1.45" shape-rendering="geometricPrecision" transform="matrix(1,0,0,1,-120,-223)" stroke-linecap="butt">
      <rect fill="none" x="456.3049" width="33.873" height="37.4375" y="368.875" clip-path="url(#clipPath2)"/>
      <text x="468.3049" font-size="20px" y="394.4297" clip-path="url(#clipPath2)" font-family="'Roboto Condensed'" stroke="none" xml:space="preserve">0</text>
    </g>
    <g fill="rgb(169,212,232)" text-rendering="geometricPrecision" shape-rendering="geometricPrecision" transform="matrix(1,0,0,1,-120,-223)" stroke="rgb(169,212,232)">
      <rect x="414.299" y="441.3125" clip-path="url(#clipPath2)" width="185.6309" rx="4" ry="4" height="37.4375" stroke="none"/>
    </g>
    <g text-rendering="geometricPrecision" stroke-miterlimit="1.45" shape-rendering="geometricPrecision" transform="matrix(1,0,0,1,-120,-223)" stroke-linecap="butt">
      <rect x="414.299" y="441.3125" clip-path="url(#clipPath2)" fill="none" width="185.6309" rx="4" ry="4" height="37.4375"/>
      <text x="441.8459" font-size="20px" y="466.8672" clip-path="url(#clipPath2)" font-family="'Roboto Condensed'" stroke="none" xml:space="preserve">status:CURRENT</text>
    </g>
    <g fill="rgb(169,212,232)" text-rendering="geometricPrecision" shape-rendering="geometricPrecision" transform="matrix(1,0,0,1,-120,-223)" stroke="rgb(169,212,232)">
      <rect x="325.501" y="299" clip-path="url(#clipPath2)" width="141.998" rx="4" ry="4" height="37.4375" stroke="none"/>
    </g>
    <g text-rendering="geometricPrecision" stroke-miterlimit="1.45" shape-rendering="geometricPrecision" transform="matrix(1,0,0,1,-120,-223)" stroke-linecap="butt">
      <rect x="325.501" y="299" clip-path="url(#clipPath2)" fill="none" width="141.998" rx="4" ry="4" height="37.4375"/>
    </g>
    <g stroke-linecap="butt" font-size="20px" transform="matrix(1,0,0,1,-120,-223)" text-rendering="geometricPrecision" font-family="'Roboto Condensed'" shape-rendering="geometricPrecision" font-style="italic" font-weight="bold" stroke-miterlimit="1.45">
      <text x="350.0645" xml:space="preserve" y="324.5547" clip-path="url(#clipPath2)" stroke="none">NUTS entity</text>
    </g>
    <g fill="rgb(169,212,232)" text-rendering="geometricPrecision" shape-rendering="geometricPrecision" transform="matrix(1,0,0,1,-120,-223)" stroke="rgb(169,212,232)">
      <rect x="325.501" y="224.5625" clip-path="url(#clipPath2)" width="194.498" rx="4" ry="4" height="37.4375" stroke="none"/>
    </g>
    <g text-rendering="geometricPrecision" stroke-miterlimit="1.45" shape-rendering="geometricPrecision" transform="matrix(1,0,0,1,-120,-223)" stroke-linecap="butt">
      <rect x="325.501" y="224.5625" clip-path="url(#clipPath2)" fill="none" width="194.498" rx="4" ry="4" height="37.4375"/>
      <text x="369.0391" font-size="20px" y="250.1172" clip-path="url(#clipPath2)" font-family="'Roboto Condensed'" stroke="none" xml:space="preserve">skos:Concept</text>
    </g>
    <g fill="rgb(169,212,232)" text-rendering="geometricPrecision" shape-rendering="geometricPrecision" transform="matrix(1,0,0,1,-120,-223)" stroke="rgb(169,212,232)">
      <rect x="609.1068" y="299" clip-path="url(#clipPath2)" width="129.9863" rx="4" ry="4" height="37.4375" stroke="none"/>
    </g>
    <g text-rendering="geometricPrecision" stroke-miterlimit="1.45" shape-rendering="geometricPrecision" transform="matrix(1,0,0,1,-120,-223)" stroke-linecap="butt">
      <rect x="609.1068" y="299" clip-path="url(#clipPath2)" fill="none" width="129.9863" rx="4" ry="4" height="37.4375"/>
    </g>
    <g stroke-linecap="butt" font-size="20px" transform="matrix(1,0,0,1,-120,-223)" text-rendering="geometricPrecision" font-family="'Roboto Condensed'" shape-rendering="geometricPrecision" font-style="italic" font-weight="bold" stroke-miterlimit="1.45">
      <text x="619.6908" xml:space="preserve" y="324.5547" clip-path="url(#clipPath2)" stroke="none">NUTS scheme</text>
    </g>
    <g text-rendering="geometricPrecision" stroke-miterlimit="1.45" stroke-width="2" shape-rendering="geometricPrecision" transform="matrix(1,0,0,1,-120,-223)" stroke-linecap="butt">
      <path fill="none" d="M656.0277 336.4375 L656.0277 391.517" clip-path="url(#clipPath2)"/>
      <path d="M656.0277 403.892 L662.7777 390.392 L649.2777 390.392 Z" clip-path="url(#clipPath2)" stroke="none"/>
      <text x="568.9068" font-size="20px" y="391.9922" clip-path="url(#clipPath2)" font-family="'Roboto Condensed'" stroke="none" stroke-width="1" xml:space="preserve">dct:issued</text>
      <path fill="none" d="M656.0277 299.0253 L656.0277 274.3621" clip-path="url(#clipPath2)"/>
      <path d="M656.0277 261.9871 L649.2777 275.4871 L662.7777 275.4871 Z" clip-path="url(#clipPath2)" stroke="none"/>
      <text x="666.0187" font-size="20px" y="287.3359" clip-path="url(#clipPath2)" font-family="'Roboto Condensed'" stroke="none" stroke-width="1" xml:space="preserve">rdf:type</text>
      <path fill="none" d="M325.4772 330.5317 L267.558 330.5317 L267.558 305.6359 L313.1536 305.6359" clip-path="url(#clipPath2)"/>
      <path d="M325.5286 305.6359 L312.0286 298.8859 L312.0286 312.3859 Z" clip-path="url(#clipPath2)" stroke="none"/>
      <text x="123.9929" font-size="20px" y="244.9889" clip-path="url(#clipPath2)" font-family="'Roboto Condensed'" stroke="none" stroke-width="1" xml:space="preserve">dct:replaces</text>
      <text x="123.9929" font-size="20px" y="268.4264" clip-path="url(#clipPath2)" font-family="'Roboto Condensed'" stroke="none" stroke-width="1" xml:space="preserve">dct:isReplacedBy</text>
      <text x="123.9929" font-size="20px" y="291.8639" clip-path="url(#clipPath2)" font-family="'Roboto Condensed'" stroke="none" stroke-width="1" xml:space="preserve">nuts:mergedFrom</text>
      <text x="123.9929" font-size="20px" y="315.3014" clip-path="url(#clipPath2)" font-family="'Roboto Condensed'" stroke="none" stroke-width="1" xml:space="preserve">nuts:mergedInto</text>
      <text x="123.9929" font-size="20px" y="338.7389" clip-path="url(#clipPath2)" font-family="'Roboto Condensed'" stroke="none" stroke-width="1" xml:space="preserve">nuts:splitFrom</text>
      <text x="123.9929" font-size="20px" y="362.1764" clip-path="url(#clipPath2)" font-family="'Roboto Condensed'" stroke="none" stroke-width="1" xml:space="preserve">nuts:splitInto</text>
      <text x="123.9929" font-size="20px" y="385.6139" clip-path="url(#clipPath2)" font-family="'Roboto Condensed'" stroke="none" stroke-width="1" xml:space="preserve">skos:broader</text>
      <text x="123.9929" font-size="20px" y="409.0514" clip-path="url(#clipPath2)" font-family="'Roboto Condensed'" stroke="none" stroke-width="1" xml:space="preserve">skos:narrower</text>
      <path fill="none" d="M378.1588 336.4437 L378.1588 391.4938" clip-path="url(#clipPath2)"/>
      <path d="M378.1588 403.8688 L384.9088 390.3688 L371.4088 390.3688 Z" clip-path="url(#clipPath2)" stroke="none"/>
      <text x="253.971" font-size="20px" y="391.9922" clip-path="url(#clipPath2)" font-family="'Roboto Condensed'" stroke="none" stroke-width="1" xml:space="preserve">skos:prefLabel</text>
      <path fill="none" d="M396.4997 336.4651 L395.5893 466.3531" clip-path="url(#clipPath2)"/>
      <path d="M395.5025 478.7278 L402.347 465.2754 L388.8473 465.1808 Z" clip-path="url(#clipPath2)" stroke="none"/>
      <text x="273.1685" font-size="20px" y="466.8672" clip-path="url(#clipPath2)" font-family="'Roboto Condensed'" stroke="none" stroke-width="1" xml:space="preserve">skos:notation</text>
      <path fill="none" d="M460.4884 336.4655 L460.4884 356.5136" clip-path="url(#clipPath2)"/>
      <path d="M460.4884 368.8886 L467.2384 355.3886 L453.7384 355.3886 Z" clip-path="url(#clipPath2)" stroke="none"/>
      <text x="469.8675" font-size="20px" y="360.4922" clip-path="url(#clipPath2)" font-family="'Roboto Condensed'" stroke="none" stroke-width="1" xml:space="preserve">nuts:level</text>
      <path fill="none" d="M427.5815 336.4446 L427.5815 428.9071" clip-path="url(#clipPath2)"/>
      <path d="M427.5815 441.2821 L434.3315 427.7821 L420.8315 427.7821 Z" clip-path="url(#clipPath2)" stroke="none"/>
      <text x="450.7436" font-size="20px" y="429.4297" clip-path="url(#clipPath2)" font-family="'Roboto Condensed'" stroke="none" stroke-width="1" xml:space="preserve">adms:status</text>
      <path fill="none" d="M396.5 298.9797 L396.5 274.3518" clip-path="url(#clipPath2)"/>
      <path d="M396.5 261.9768 L389.75 275.4768 L403.25 275.4768 Z" clip-path="url(#clipPath2)" stroke="none"/>
      <text x="406.491" font-size="20px" y="287.3359" clip-path="url(#clipPath2)" font-family="'Roboto Condensed'" stroke="none" stroke-width="1" xml:space="preserve">rdf:type</text>
      <path fill="none" d="M467.4927 317.7188 L596.7314 317.7188" clip-path="url(#clipPath2)"/>
      <path d="M609.1064 317.7188 L595.6064 310.9688 L595.6064 324.4688 Z" clip-path="url(#clipPath2)" stroke="none"/>
      <text x="478.6447" font-size="20px" y="303.5547" clip-path="url(#clipPath2)" font-family="'Roboto Condensed'" stroke="none" stroke-width="1" xml:space="preserve">skos:inScheme</text>
      <path fill="none" d="M751.4952 330.7656 L760.4567 330.7656 L760.4567 305.238 L739.127 305.238" clip-path="url(#clipPath2)"/>
      <path d="M739.1202 330.7656 L752.6202 337.5156 L752.6202 324.0156 Z" clip-path="url(#clipPath2)" stroke="none"/>
      <text x="676.0347" font-size="20px" y="362.8828" clip-path="url(#clipPath2)" font-family="'Roboto Condensed'" stroke="none" stroke-width="1" xml:space="preserve">skos:replaces</text>
      <text x="676.0347" font-size="20px" y="386.3203" clip-path="url(#clipPath2)" font-family="'Roboto Condensed'" stroke="none" stroke-width="1" xml:space="preserve">skos:isReplacedBy</text>
    </g>
  </g>
</svg>
