<?xml version="1.0" encoding="UTF-8"?><svg xmlns="http://www.w3.org/2000/svg" xmlns:xlink="http://www.w3.org/1999/xlink" fill-opacity="1" color-rendering="auto" color-interpolation="auto" text-rendering="auto" stroke="black" stroke-linecap="square" width="861" stroke-miterlimit="10" shape-rendering="auto" stroke-opacity="1" fill="black" stroke-dasharray="none" font-weight="normal" stroke-width="1" height="618" font-family="'Dialog'" font-style="normal" stroke-linejoin="miter" font-size="12px" stroke-dashoffset="0" image-rendering="auto">
  <!--Generated by ySVG 2.6-->
  <defs id="genericDefs"/>
  <g>
    <defs id="defs1">
      <clipPath clipPathUnits="userSpaceOnUse" id="clipPath1">
        <path d="M0 0 L861 0 L861 618 L0 618 L0 0 Z"/>
      </clipPath>
      <clipPath clipPathUnits="userSpaceOnUse" id="clipPath2">
        <path d="M-1 -113 L860 -113 L860 505 L-1 505 L-1 -113 Z"/>
      </clipPath>
    </defs>
    <g fill="white" text-rendering="geometricPrecision" shape-rendering="geometricPrecision" transform="translate(1,113)" stroke="white">
      <rect x="-1" width="861" height="618" y="-113" clip-path="url(#clipPath2)" stroke="none"/>
    </g>
    <g fill="rgb(250,224,130)" text-rendering="geometricPrecision" shape-rendering="geometricPrecision" transform="matrix(1,0,0,1,1,113)" stroke="rgb(250,224,130)">
      <rect x="139.5532" y="143.125" clip-path="url(#clipPath2)" width="299.3125" rx="4" ry="4" height="37.4375" stroke="none"/>
    </g>
    <g text-rendering="geometricPrecision" stroke-miterlimit="1.45" shape-rendering="geometricPrecision" transform="matrix(1,0,0,1,1,113)" stroke-linecap="butt">
      <rect x="139.5532" y="143.125" clip-path="url(#clipPath2)" fill="none" width="299.3125" rx="4" ry="4" height="37.4375"/>
      <text x="149.0043" font-size="20px" y="168.6797" clip-path="url(#clipPath2)" font-family="'Roboto Condensed'" stroke="none" xml:space="preserve">http://w3id.org/launuts/nuts/code/</text>
    </g>
    <g fill="rgb(250,224,130)" text-rendering="geometricPrecision" shape-rendering="geometricPrecision" transform="matrix(1,0,0,1,1,113)" stroke="rgb(250,224,130)">
      <rect x="443.8657" y="143.125" clip-path="url(#clipPath2)" width="117.7109" rx="4" ry="4" height="37.4375" stroke="none"/>
    </g>
    <g text-rendering="geometricPrecision" stroke-miterlimit="1.45" shape-rendering="geometricPrecision" transform="matrix(1,0,0,1,1,113)" stroke-linecap="butt">
      <rect x="443.8657" y="143.125" clip-path="url(#clipPath2)" fill="none" width="117.7109" rx="4" ry="4" height="37.4375"/>
      <text x="455.8657" font-size="20px" y="168.6797" clip-path="url(#clipPath2)" font-family="'Roboto Condensed'" stroke="none" xml:space="preserve">NUTS CODE</text>
    </g>
    <g fill="rgb(250,224,130)" text-rendering="geometricPrecision" shape-rendering="geometricPrecision" transform="matrix(1,0,0,1,1,113)" stroke="rgb(250,224,130)">
      <rect x="139.5532" y="68.7219" clip-path="url(#clipPath2)" width="322.5645" rx="4" ry="4" height="37.4375" stroke="none"/>
    </g>
    <g text-rendering="geometricPrecision" stroke-miterlimit="1.45" shape-rendering="geometricPrecision" transform="matrix(1,0,0,1,1,113)" stroke-linecap="butt">
      <rect x="139.5532" y="68.7219" clip-path="url(#clipPath2)" fill="none" width="322.5645" rx="4" ry="4" height="37.4375"/>
      <text x="149.0043" font-size="20px" y="94.2766" clip-path="url(#clipPath2)" font-family="'Roboto Condensed'" stroke="none" xml:space="preserve">http://w3id.org/launuts/nuts/scheme/</text>
    </g>
    <g fill="rgb(250,224,130)" text-rendering="geometricPrecision" shape-rendering="geometricPrecision" transform="matrix(1,0,0,1,1,113)" stroke="rgb(250,224,130)">
      <rect x="467.1176" y="68.7219" clip-path="url(#clipPath2)" width="66.5879" rx="4" ry="4" height="37.4375" stroke="none"/>
    </g>
    <g text-rendering="geometricPrecision" stroke-miterlimit="1.45" shape-rendering="geometricPrecision" transform="matrix(1,0,0,1,1,113)" stroke-linecap="butt">
      <rect x="467.1176" y="68.7219" clip-path="url(#clipPath2)" fill="none" width="66.5879" rx="4" ry="4" height="37.4375"/>
      <text x="479.1176" font-size="20px" y="94.2766" clip-path="url(#clipPath2)" font-family="'Roboto Condensed'" stroke="none" xml:space="preserve">YEAR</text>
    </g>
    <g fill="rgb(209,226,138)" text-rendering="geometricPrecision" shape-rendering="geometricPrecision" transform="matrix(1,0,0,1,1,113)" stroke="rgb(209,226,138)">
      <rect x="139.5532" y="364.7933" clip-path="url(#clipPath2)" width="260.6309" rx="4" ry="4" height="37.4375" stroke="none"/>
    </g>
    <g text-rendering="geometricPrecision" stroke-miterlimit="1.45" shape-rendering="geometricPrecision" transform="matrix(1,0,0,1,1,113)" stroke-linecap="butt">
      <rect x="139.5532" y="364.7933" clip-path="url(#clipPath2)" fill="none" width="260.6309" rx="4" ry="4" height="37.4375"/>
      <text x="157.9399" font-size="20px" y="390.348" clip-path="url(#clipPath2)" font-family="'Roboto Condensed'" stroke="none" xml:space="preserve">http://w3id.org/launuts/lau/</text>
    </g>
    <g fill="rgb(209,226,138)" text-rendering="geometricPrecision" shape-rendering="geometricPrecision" transform="matrix(1,0,0,1,1,113)" stroke="rgb(209,226,138)">
      <rect x="405.184" y="364.7933" clip-path="url(#clipPath2)" width="151.8125" rx="4" ry="4" height="37.4375" stroke="none"/>
    </g>
    <g text-rendering="geometricPrecision" stroke-miterlimit="1.45" shape-rendering="geometricPrecision" transform="matrix(1,0,0,1,1,113)" stroke-linecap="butt">
      <rect x="405.184" y="364.7933" clip-path="url(#clipPath2)" fill="none" width="151.8125" rx="4" ry="4" height="37.4375"/>
      <text x="417.184" font-size="20px" y="390.348" clip-path="url(#clipPath2)" font-family="'Roboto Condensed'" stroke="none" xml:space="preserve">COUNTRY CODE</text>
    </g>
    <g fill="rgb(209,226,138)" text-rendering="geometricPrecision" shape-rendering="geometricPrecision" transform="matrix(1,0,0,1,1,113)" stroke="rgb(209,226,138)">
      <rect x="139.5532" y="437.6556" clip-path="url(#clipPath2)" width="260.6309" rx="4" ry="4" height="37.4375" stroke="none"/>
    </g>
    <g text-rendering="geometricPrecision" stroke-miterlimit="1.45" shape-rendering="geometricPrecision" transform="matrix(1,0,0,1,1,113)" stroke-linecap="butt">
      <rect x="139.5532" y="437.6556" clip-path="url(#clipPath2)" fill="none" width="260.6309" rx="4" ry="4" height="37.4375"/>
      <text x="157.9399" font-size="20px" y="463.2102" clip-path="url(#clipPath2)" font-family="'Roboto Condensed'" stroke="none" xml:space="preserve">http://w3id.org/launuts/lau/</text>
    </g>
    <g fill="rgb(209,226,138)" text-rendering="geometricPrecision" shape-rendering="geometricPrecision" transform="matrix(1,0,0,1,1,113)" stroke="rgb(209,226,138)">
      <rect x="405.184" y="437.6556" clip-path="url(#clipPath2)" width="151.8125" rx="4" ry="4" height="37.4375" stroke="none"/>
    </g>
    <g text-rendering="geometricPrecision" stroke-miterlimit="1.45" shape-rendering="geometricPrecision" transform="matrix(1,0,0,1,1,113)" stroke-linecap="butt">
      <rect x="405.184" y="437.6556" clip-path="url(#clipPath2)" fill="none" width="151.8125" rx="4" ry="4" height="37.4375"/>
      <text x="459.7963" font-size="20px" y="463.2102" clip-path="url(#clipPath2)" font-family="'Roboto Condensed'" stroke="none" xml:space="preserve">YEAR</text>
    </g>
    <g fill="rgb(209,226,138)" text-rendering="geometricPrecision" shape-rendering="geometricPrecision" transform="matrix(1,0,0,1,1,113)" stroke="rgb(209,226,138)">
      <rect x="598.4184" y="364.7933" clip-path="url(#clipPath2)" width="105.582" rx="4" ry="4" height="37.4375" stroke="none"/>
    </g>
    <g text-rendering="geometricPrecision" stroke-miterlimit="1.45" shape-rendering="geometricPrecision" transform="matrix(1,0,0,1,1,113)" stroke-linecap="butt">
      <rect x="598.4184" y="364.7933" clip-path="url(#clipPath2)" fill="none" width="105.582" rx="4" ry="4" height="37.4375"/>
      <text x="610.4184" font-size="20px" y="390.348" clip-path="url(#clipPath2)" font-family="'Roboto Condensed'" stroke="none" xml:space="preserve">LAU CODE</text>
    </g>
    <g fill="rgb(209,226,138)" text-rendering="geometricPrecision" shape-rendering="geometricPrecision" transform="matrix(1,0,0,1,1,113)" stroke="rgb(209,226,138)">
      <rect x="561.9965" y="364.7933" clip-path="url(#clipPath2)" width="31.4219" rx="4" ry="4" height="37.4375" stroke="none"/>
    </g>
    <g text-rendering="geometricPrecision" stroke-miterlimit="1.45" shape-rendering="geometricPrecision" transform="matrix(1,0,0,1,1,113)" stroke-linecap="butt">
      <rect x="561.9965" y="364.7933" clip-path="url(#clipPath2)" fill="none" width="31.4219" rx="4" ry="4" height="37.4375"/>
      <text x="572.2289" font-size="20px" y="390.348" clip-path="url(#clipPath2)" font-family="'Roboto Condensed'" stroke="none" xml:space="preserve">#</text>
    </g>
    <g fill="rgb(209,226,138)" text-rendering="geometricPrecision" shape-rendering="geometricPrecision" transform="matrix(1,0,0,1,1,113)" stroke="rgb(209,226,138)">
      <rect x="139.5532" y="291.9311" clip-path="url(#clipPath2)" width="271.1875" rx="4" ry="4" height="37.4375" stroke="none"/>
    </g>
    <g text-rendering="geometricPrecision" stroke-miterlimit="1.45" shape-rendering="geometricPrecision" transform="matrix(1,0,0,1,1,113)" stroke-linecap="butt">
      <rect x="139.5532" y="291.9311" clip-path="url(#clipPath2)" fill="none" width="271.1875" rx="4" ry="4" height="37.4375"/>
      <text x="163.2182" font-size="20px" y="317.4858" clip-path="url(#clipPath2)" font-family="'Roboto Condensed'" stroke="none" xml:space="preserve">http://w3id.org/launuts/lau/</text>
    </g>
    <g fill="rgb(209,226,138)" text-rendering="geometricPrecision" shape-rendering="geometricPrecision" transform="matrix(1,0,0,1,1,113)" stroke="rgb(209,226,138)">
      <rect x="524.6157" y="291.9311" clip-path="url(#clipPath2)" width="151.8125" rx="4" ry="4" height="37.4375" stroke="none"/>
    </g>
    <g text-rendering="geometricPrecision" stroke-miterlimit="1.45" shape-rendering="geometricPrecision" transform="matrix(1,0,0,1,1,113)" stroke-linecap="butt">
      <rect x="524.6157" y="291.9311" clip-path="url(#clipPath2)" fill="none" width="151.8125" rx="4" ry="4" height="37.4375"/>
      <text x="536.6157" font-size="20px" y="317.4858" clip-path="url(#clipPath2)" font-family="'Roboto Condensed'" stroke="none" xml:space="preserve">COUNTRY CODE</text>
    </g>
    <g fill="rgb(209,226,138)" text-rendering="geometricPrecision" shape-rendering="geometricPrecision" transform="matrix(1,0,0,1,1,113)" stroke="rgb(209,226,138)">
      <rect x="717.85" y="291.9311" clip-path="url(#clipPath2)" width="105.582" rx="4" ry="4" height="37.4375" stroke="none"/>
    </g>
    <g text-rendering="geometricPrecision" stroke-miterlimit="1.45" shape-rendering="geometricPrecision" transform="matrix(1,0,0,1,1,113)" stroke-linecap="butt">
      <rect x="717.85" y="291.9311" clip-path="url(#clipPath2)" fill="none" width="105.582" rx="4" ry="4" height="37.4375"/>
      <text x="729.85" font-size="20px" y="317.4858" clip-path="url(#clipPath2)" font-family="'Roboto Condensed'" stroke="none" xml:space="preserve">LAU CODE</text>
    </g>
    <g fill="rgb(209,226,138)" text-rendering="geometricPrecision" shape-rendering="geometricPrecision" transform="matrix(1,0,0,1,1,113)" stroke="rgb(209,226,138)">
      <rect x="681.4282" y="291.9311" clip-path="url(#clipPath2)" width="31.4219" rx="4" ry="4" height="37.4375" stroke="none"/>
    </g>
    <g text-rendering="geometricPrecision" stroke-miterlimit="1.45" shape-rendering="geometricPrecision" transform="matrix(1,0,0,1,1,113)" stroke-linecap="butt">
      <rect x="681.4282" y="291.9311" clip-path="url(#clipPath2)" fill="none" width="31.4219" rx="4" ry="4" height="37.4375"/>
      <text x="691.6606" font-size="20px" y="317.4858" clip-path="url(#clipPath2)" font-family="'Roboto Condensed'" stroke="none" xml:space="preserve">#</text>
    </g>
    <g fill="rgb(209,226,138)" text-rendering="geometricPrecision" shape-rendering="geometricPrecision" transform="matrix(1,0,0,1,1,113)" stroke="rgb(209,226,138)">
      <rect x="416.6059" y="291.9311" clip-path="url(#clipPath2)" width="66.5879" rx="4" ry="4" height="37.4375" stroke="none"/>
    </g>
    <g text-rendering="geometricPrecision" stroke-miterlimit="1.45" shape-rendering="geometricPrecision" transform="matrix(1,0,0,1,1,113)" stroke-linecap="butt">
      <rect x="416.6059" y="291.9311" clip-path="url(#clipPath2)" fill="none" width="66.5879" rx="4" ry="4" height="37.4375"/>
      <text x="428.6059" font-size="20px" y="317.4858" clip-path="url(#clipPath2)" font-family="'Roboto Condensed'" stroke="none" xml:space="preserve">YEAR</text>
    </g>
    <g fill="rgb(209,226,138)" text-rendering="geometricPrecision" shape-rendering="geometricPrecision" transform="matrix(1,0,0,1,1,113)" stroke="rgb(209,226,138)">
      <rect x="488.1938" y="291.9311" clip-path="url(#clipPath2)" width="31.4219" rx="4" ry="4" height="37.4375" stroke="none"/>
    </g>
    <g text-rendering="geometricPrecision" stroke-miterlimit="1.45" shape-rendering="geometricPrecision" transform="matrix(1,0,0,1,1,113)" stroke-linecap="butt">
      <rect x="488.1938" y="291.9311" clip-path="url(#clipPath2)" fill="none" width="31.4219" rx="4" ry="4" height="37.4375"/>
      <text x="500.1938" font-size="20px" y="317.4858" clip-path="url(#clipPath2)" font-family="'Roboto Condensed'" stroke="none" xml:space="preserve">/</text>
    </g>
    <g fill="rgb(250,224,130)" text-rendering="geometricPrecision" shape-rendering="geometricPrecision" transform="matrix(1,0,0,1,1,113)" stroke="rgb(250,224,130)">
      <rect x="139.5532" y="217.5281" clip-path="url(#clipPath2)" width="271.1875" rx="4" ry="4" height="37.4375" stroke="none"/>
    </g>
    <g text-rendering="geometricPrecision" stroke-miterlimit="1.45" shape-rendering="geometricPrecision" transform="matrix(1,0,0,1,1,113)" stroke-linecap="butt">
      <rect x="139.5532" y="217.5281" clip-path="url(#clipPath2)" fill="none" width="271.1875" rx="4" ry="4" height="37.4375"/>
      <text x="157.9399" font-size="20px" y="243.0827" clip-path="url(#clipPath2)" font-family="'Roboto Condensed'" stroke="none" xml:space="preserve">http://w3id.org/launuts/nuts/</text>
    </g>
    <g fill="rgb(250,224,130)" text-rendering="geometricPrecision" shape-rendering="geometricPrecision" transform="matrix(1,0,0,1,1,113)" stroke="rgb(250,224,130)">
      <rect x="524.6157" y="217.5281" clip-path="url(#clipPath2)" width="117.7109" rx="4" ry="4" height="37.4375" stroke="none"/>
    </g>
    <g text-rendering="geometricPrecision" stroke-miterlimit="1.45" shape-rendering="geometricPrecision" transform="matrix(1,0,0,1,1,113)" stroke-linecap="butt">
      <rect x="524.6157" y="217.5281" clip-path="url(#clipPath2)" fill="none" width="117.7109" rx="4" ry="4" height="37.4375"/>
      <text x="536.6157" font-size="20px" y="243.0827" clip-path="url(#clipPath2)" font-family="'Roboto Condensed'" stroke="none" xml:space="preserve">NUTS CODE</text>
    </g>
    <g fill="rgb(250,224,130)" text-rendering="geometricPrecision" shape-rendering="geometricPrecision" transform="matrix(1,0,0,1,1,113)" stroke="rgb(250,224,130)">
      <rect x="416.6059" y="217.5281" clip-path="url(#clipPath2)" width="66.5879" rx="4" ry="4" height="37.4375" stroke="none"/>
    </g>
    <g text-rendering="geometricPrecision" stroke-miterlimit="1.45" shape-rendering="geometricPrecision" transform="matrix(1,0,0,1,1,113)" stroke-linecap="butt">
      <rect x="416.6059" y="217.5281" clip-path="url(#clipPath2)" fill="none" width="66.5879" rx="4" ry="4" height="37.4375"/>
      <text x="428.6059" font-size="20px" y="243.0827" clip-path="url(#clipPath2)" font-family="'Roboto Condensed'" stroke="none" xml:space="preserve">YEAR</text>
    </g>
    <g fill="rgb(250,224,130)" text-rendering="geometricPrecision" shape-rendering="geometricPrecision" transform="matrix(1,0,0,1,1,113)" stroke="rgb(250,224,130)">
      <rect x="488.1938" y="217.5281" clip-path="url(#clipPath2)" width="31.4219" rx="4" ry="4" height="37.4375" stroke="none"/>
    </g>
    <g text-rendering="geometricPrecision" stroke-miterlimit="1.45" shape-rendering="geometricPrecision" transform="matrix(1,0,0,1,1,113)" stroke-linecap="butt">
      <rect x="488.1938" y="217.5281" clip-path="url(#clipPath2)" fill="none" width="31.4219" rx="4" ry="4" height="37.4375"/>
      <text x="498.4262" font-size="20px" y="243.0827" clip-path="url(#clipPath2)" font-family="'Roboto Condensed'" stroke="none" xml:space="preserve">#</text>
      <text x="151.5532" font-size="20px" y="134.4886" clip-path="url(#clipPath2)" font-family="'Roboto Condensed'" stroke="none" font-weight="bold" xml:space="preserve">NUTS entity:</text>
      <text x="151.5532" font-size="20px" y="429.0191" clip-path="url(#clipPath2)" font-family="'Roboto Condensed'" stroke="none" font-weight="bold" xml:space="preserve">LAU scheme:</text>
      <text x="151.5532" font-size="20px" y="356.1569" clip-path="url(#clipPath2)" font-family="'Roboto Condensed'" stroke="none" font-weight="bold" xml:space="preserve">LAU entity:</text>
      <text x="151.5532" font-size="20px" y="283.2947" clip-path="url(#clipPath2)" font-family="'Roboto Condensed'" stroke="none" font-weight="bold" xml:space="preserve">Unique LAU entity:</text>
      <text x="151.5532" font-size="20px" y="208.8916" clip-path="url(#clipPath2)" font-family="'Roboto Condensed'" stroke="none" font-weight="bold" xml:space="preserve">Unique NUTS entity:</text>
    </g>
    <g fill="rgb(253,246,217)" text-rendering="geometricPrecision" shape-rendering="geometricPrecision" transform="matrix(1,0,0,1,1,113)" stroke="rgb(253,246,217)">
      <rect x="0.881" width="109.0488" height="37.4375" y="143.125" clip-path="url(#clipPath2)" stroke="none"/>
    </g>
    <g text-rendering="geometricPrecision" stroke-miterlimit="1.45" shape-rendering="geometricPrecision" transform="matrix(1,0,0,1,1,113)" stroke-linecap="butt">
      <rect fill="none" x="0.881" width="109.0488" height="37.4375" y="143.125" clip-path="url(#clipPath2)"/>
      <text x="12.881" font-size="20px" y="168.6797" clip-path="url(#clipPath2)" font-family="'Roboto Condensed'" font-style="italic" stroke="none" xml:space="preserve">NUTS code</text>
    </g>
    <g fill="rgb(241,246,219)" text-rendering="geometricPrecision" shape-rendering="geometricPrecision" transform="matrix(1,0,0,1,1,113)" stroke="rgb(241,246,219)">
      <rect x="0.881" width="109.0488" height="37.4375" y="364.7933" clip-path="url(#clipPath2)" stroke="none"/>
    </g>
    <g text-rendering="geometricPrecision" stroke-miterlimit="1.45" shape-rendering="geometricPrecision" transform="matrix(1,0,0,1,1,113)" stroke-linecap="butt">
      <rect fill="none" x="0.881" width="109.0488" height="37.4375" y="364.7933" clip-path="url(#clipPath2)"/>
      <text x="17.6856" font-size="20px" y="390.348" clip-path="url(#clipPath2)" font-family="'Roboto Condensed'" stroke="none" xml:space="preserve">LAU code</text>
    </g>
    <g fill="rgb(253,246,217)" text-rendering="geometricPrecision" shape-rendering="geometricPrecision" transform="matrix(1,0,0,1,1,113)" stroke="rgb(253,246,217)">
      <rect x="0.881" width="109.0488" height="37.4375" y="68.7219" clip-path="url(#clipPath2)" stroke="none"/>
    </g>
    <g text-rendering="geometricPrecision" stroke-miterlimit="1.45" shape-rendering="geometricPrecision" transform="matrix(1,0,0,1,1,113)" stroke-linecap="butt">
      <rect fill="none" x="0.881" width="109.0488" height="37.4375" y="68.7219" clip-path="url(#clipPath2)"/>
      <text x="38.5255" font-size="20px" y="94.2766" clip-path="url(#clipPath2)" font-family="'Roboto Condensed'" font-style="italic" stroke="none" xml:space="preserve">date</text>
    </g>
    <g fill="rgb(241,246,219)" text-rendering="geometricPrecision" shape-rendering="geometricPrecision" transform="matrix(1,0,0,1,1,113)" stroke="rgb(241,246,219)">
      <rect x="0.881" width="109.0488" height="37.4375" y="437.6556" clip-path="url(#clipPath2)" stroke="none"/>
    </g>
    <g text-rendering="geometricPrecision" stroke-miterlimit="1.45" shape-rendering="geometricPrecision" transform="matrix(1,0,0,1,1,113)" stroke-linecap="butt">
      <rect fill="none" x="0.881" width="109.0488" height="37.4375" y="437.6556" clip-path="url(#clipPath2)"/>
      <text x="38.0079" font-size="20px" y="463.2102" clip-path="url(#clipPath2)" font-family="'Roboto Condensed'" stroke="none" xml:space="preserve">date</text>
      <text x="151.5532" font-size="20px" y="-14.3175" clip-path="url(#clipPath2)" font-family="'Roboto Condensed'" stroke="none" font-weight="bold" xml:space="preserve">Eurostat NUTS entity:</text>
      <text x="151.5532" font-size="20px" y="-88.7206" clip-path="url(#clipPath2)" font-family="'Roboto Condensed'" stroke="none" font-weight="bold" xml:space="preserve">Eurostat NUTS scheme:</text>
    </g>
    <g fill="rgb(169,212,232)" text-rendering="geometricPrecision" shape-rendering="geometricPrecision" transform="matrix(1,0,0,1,1,113)" stroke="rgb(169,212,232)">
      <rect x="467.1176" y="-80.0842" clip-path="url(#clipPath2)" width="66.5879" rx="4" ry="4" height="37.4375" stroke="none"/>
    </g>
    <g text-rendering="geometricPrecision" stroke-miterlimit="1.45" shape-rendering="geometricPrecision" transform="matrix(1,0,0,1,1,113)" stroke-linecap="butt">
      <rect x="467.1176" y="-80.0842" clip-path="url(#clipPath2)" fill="none" width="66.5879" rx="4" ry="4" height="37.4375"/>
      <text x="479.1176" font-size="20px" y="-54.5295" clip-path="url(#clipPath2)" font-family="'Roboto Condensed'" stroke="none" xml:space="preserve">YEAR</text>
    </g>
    <g fill="rgb(169,212,232)" text-rendering="geometricPrecision" shape-rendering="geometricPrecision" transform="matrix(1,0,0,1,1,113)" stroke="rgb(169,212,232)">
      <rect x="139.5532" y="-80.0842" clip-path="url(#clipPath2)" width="322.5645" rx="4" ry="4" height="37.4375" stroke="none"/>
    </g>
    <g text-rendering="geometricPrecision" stroke-miterlimit="1.45" shape-rendering="geometricPrecision" transform="matrix(1,0,0,1,1,113)" stroke-linecap="butt">
      <rect x="139.5532" y="-80.0842" clip-path="url(#clipPath2)" fill="none" width="322.5645" rx="4" ry="4" height="37.4375"/>
      <text x="156.5532" font-size="20px" y="-54.5295" clip-path="url(#clipPath2)" font-family="'Roboto Condensed'" stroke="none" xml:space="preserve">http://data.europa.eu/nuts/scheme/</text>
    </g>
    <g fill="rgb(169,212,232)" text-rendering="geometricPrecision" shape-rendering="geometricPrecision" transform="matrix(1,0,0,1,1,113)" stroke="rgb(169,212,232)">
      <rect x="443.8657" y="-5.6811" clip-path="url(#clipPath2)" width="117.7109" rx="4" ry="4" height="37.4375" stroke="none"/>
    </g>
    <g text-rendering="geometricPrecision" stroke-miterlimit="1.45" shape-rendering="geometricPrecision" transform="matrix(1,0,0,1,1,113)" stroke-linecap="butt">
      <rect x="443.8657" y="-5.6811" clip-path="url(#clipPath2)" fill="none" width="117.7109" rx="4" ry="4" height="37.4375"/>
      <text x="455.8657" font-size="20px" y="19.8736" clip-path="url(#clipPath2)" font-family="'Roboto Condensed'" stroke="none" xml:space="preserve">NUTS CODE</text>
    </g>
    <g fill="rgb(169,212,232)" text-rendering="geometricPrecision" shape-rendering="geometricPrecision" transform="matrix(1,0,0,1,1,113)" stroke="rgb(169,212,232)">
      <rect x="139.5532" y="-5.6811" clip-path="url(#clipPath2)" width="299.3125" rx="4" ry="4" height="37.4375" stroke="none"/>
    </g>
    <g text-rendering="geometricPrecision" stroke-miterlimit="1.45" shape-rendering="geometricPrecision" transform="matrix(1,0,0,1,1,113)" stroke-linecap="butt">
      <rect x="139.5532" y="-5.6811" clip-path="url(#clipPath2)" fill="none" width="299.3125" rx="4" ry="4" height="37.4375"/>
      <text x="156.5532" font-size="20px" y="19.8736" clip-path="url(#clipPath2)" font-family="'Roboto Condensed'" stroke="none" xml:space="preserve">http://data.europa.eu/nuts/code/</text>
      <text x="151.5532" font-size="20px" y="60.0855" clip-path="url(#clipPath2)" font-family="'Roboto Condensed'" stroke="none" font-weight="bold" xml:space="preserve">NUTS scheme:</text>
      <path fill="none" d="M504.3343 402.2613 L504.3343 425.2658" stroke-width="2" clip-path="url(#clipPath2)"/>
      <path d="M504.3343 437.6408 L511.0843 424.1408 L497.5843 424.1408 Z" stroke-width="2" clip-path="url(#clipPath2)" stroke="none"/>
      <text x="508.3343" font-size="20px" y="426.7791" clip-path="url(#clipPath2)" font-family="'Roboto Condensed'" stroke="none" xml:space="preserve">  skos:inScheme</text>
      <path fill="none" d="M504.1051 329.3991 L504.2025 352.4037" stroke-width="2" clip-path="url(#clipPath2)"/>
      <path d="M504.2549 364.7786 L510.9477 351.2502 L497.4478 351.3073 Z" stroke-width="2" clip-path="url(#clipPath2)" stroke="none"/>
      <text x="508.2381" font-size="20px" y="353.9169" clip-path="url(#clipPath2)" font-family="'Roboto Condensed'" stroke="none" xml:space="preserve">  skos:hasTopConcept</text>
      <path fill="none" d="M504.0257 291.9401 L504.0257 267.3585" stroke-width="2" clip-path="url(#clipPath2)"/>
      <path d="M504.0257 254.9835 L497.2757 268.4835 L510.7757 268.4835 Z" stroke-width="2" clip-path="url(#clipPath2)" stroke="none"/>
      <text x="508.0257" font-size="20px" y="280.2843" clip-path="url(#clipPath2)" font-family="'Roboto Condensed'" stroke="none" xml:space="preserve">  skos:broader</text>
      <path fill="none" d="M504.0257 217.537 L504.0257 192.9554" stroke-width="2" clip-path="url(#clipPath2)"/>
      <path d="M504.0257 180.5804 L497.2757 194.0804 L510.7757 194.0804 Z" stroke-width="2" clip-path="url(#clipPath2)" stroke="none"/>
      <text x="508.0257" font-size="20px" y="205.8812" clip-path="url(#clipPath2)" font-family="'Roboto Condensed'" stroke="none" xml:space="preserve">  skos:hasTopConcept</text>
      <path fill="none" d="M504.0257 143.134 L504.0257 118.5524" stroke-width="2" clip-path="url(#clipPath2)"/>
      <path d="M504.0257 106.1774 L497.2757 119.6774 L510.7757 119.6774 Z" stroke-width="2" clip-path="url(#clipPath2)" stroke="none"/>
      <text x="508.0257" font-size="20px" y="131.4782" clip-path="url(#clipPath2)" font-family="'Roboto Condensed'" stroke="none" xml:space="preserve">  skos:inScheme</text>
      <path fill="none" d="M504.0257 143.134 L504.0257 118.5524" stroke-width="2" clip-path="url(#clipPath2)"/>
      <path d="M504.0257 106.1774 L497.2757 119.6774 L510.7757 119.6774 Z" stroke-width="2" clip-path="url(#clipPath2)" stroke="none"/>
      <path fill="none" d="M823.4388 310.6499 L836.3735 310.6499 L836.3735 456.3743 L569.4053 456.3743" stroke-width="2" clip-path="url(#clipPath2)"/>
      <path d="M557.0303 456.3743 L570.5303 463.1243 L570.5303 449.6243 Z" stroke-width="2" clip-path="url(#clipPath2)" stroke="none"/>
      <text x="710.4802" font-size="20px" y="444.9146" clip-path="url(#clipPath2)" font-family="'Roboto Condensed'" stroke="none" xml:space="preserve">skos:inScheme</text>
      <path fill="none" d="M642.3231 236.2468 L836.2845 236.2468 L836.2845 93.9605 L546.0944 93.9605" stroke-width="2" clip-path="url(#clipPath2)"/>
      <path d="M533.7194 93.9605 L547.2194 100.7105 L547.2194 87.2105 Z" stroke-width="2" clip-path="url(#clipPath2)" stroke="none"/>
      <text x="710.0013" font-size="20px" y="118.6633" clip-path="url(#clipPath2)" font-family="'Roboto Condensed'" stroke="none" xml:space="preserve">skos:inScheme</text>
      <path fill="none" d="M139.5714 161.8438 L122.3048 161.8438" stroke-width="2" clip-path="url(#clipPath2)"/>
      <path d="M109.9298 161.8438 L123.4298 168.5938 L123.4298 155.0938 Z" stroke-width="2" clip-path="url(#clipPath2)" stroke="none"/>
      <text x="19.7634" font-size="20px" y="202.0413" clip-path="url(#clipPath2)" font-family="'Roboto Condensed'" stroke="none" xml:space="preserve">skos:notation</text>
      <path fill="none" d="M139.5728 383.5121 L122.3048 383.5121" stroke-width="2" clip-path="url(#clipPath2)"/>
      <path d="M109.9298 383.5121 L123.4298 390.2621 L123.4298 376.7621 Z" stroke-width="2" clip-path="url(#clipPath2)" stroke="none"/>
      <text x="19.6746" font-size="20px" y="424.018" clip-path="url(#clipPath2)" font-family="'Roboto Condensed'" stroke="none" xml:space="preserve">skos:notation</text>
      <path fill="none" d="M139.5622 87.4407 L122.3048 87.4407" stroke-width="2" clip-path="url(#clipPath2)"/>
      <path d="M109.9298 87.4407 L123.4298 94.1907 L123.4298 80.6907 Z" stroke-width="2" clip-path="url(#clipPath2)" stroke="none"/>
      <text x="46.0648" font-size="20px" y="127.8981" clip-path="url(#clipPath2)" font-family="'Roboto Condensed'" stroke="none" xml:space="preserve">dct:issued</text>
      <path fill="none" d="M139.5728 456.3743 L122.3048 456.3743" stroke-width="2" clip-path="url(#clipPath2)"/>
      <path d="M109.9298 456.3743 L123.4298 463.1243 L123.4298 449.6243 Z" stroke-width="2" clip-path="url(#clipPath2)" stroke="none"/>
      <text x="45.9834" font-size="20px" y="496.8802" clip-path="url(#clipPath2)" font-family="'Roboto Condensed'" stroke="none" xml:space="preserve">dct:issued</text>
      <path fill="none" stroke-dasharray="12,4" d="M533.6727 80.5387 L836.2845 80.5387 L836.2845 -61.3654 L546.1196 -61.3654" stroke-width="2" clip-path="url(#clipPath2)"/>
      <path stroke-dasharray="12,4" d="M533.7446 -61.3654 L547.2446 -54.6154 L547.2446 -68.1154 Z" stroke-width="2" clip-path="url(#clipPath2)" stroke="none"/>
      <text x="588.0813" font-size="20px" y="-71.7081" clip-path="url(#clipPath2)" font-family="'Roboto Condensed'" stroke="none" xml:space="preserve">owl:sameAs </text>
      <path fill="none" stroke-dasharray="12,4" d="M561.5635 161.8438 L699.15 161.8438 L699.15 13.0376 L573.9385 13.0376" stroke-width="2" clip-path="url(#clipPath2)"/>
      <path stroke-dasharray="12,4" d="M561.5635 13.0376 L575.0635 19.7876 L575.0635 6.2876 Z" stroke-width="2" clip-path="url(#clipPath2)" stroke="none"/>
      <text x="587.8853" font-size="20px" y="1.8359" clip-path="url(#clipPath2)" font-family="'Roboto Condensed'" stroke="none" xml:space="preserve">owl:sameAs </text>
    </g>
  </g>
</svg>
